<?xml version="1.0" standalone="no"?>
<!DOCTYPE svg PUBLIC "-//W3C//DTD SVG 20010904//EN"
 "http://www.w3.org/TR/2001/REC-SVG-20010904/DTD/svg10.dtd">
<svg version="1.0" xmlns="http://www.w3.org/2000/svg"
 width="183.000000pt" height="183.000000pt" viewBox="0 0 183.000000 183.000000"
 preserveAspectRatio="xMidYMid meet">
<metadata>
Created by potrace 1.11, written by Peter Selinger 2001-2013
</metadata>
<g transform="translate(0.000000,183.000000) scale(0.100000,-0.100000)"
fill="#000000" stroke="none">
<path d="M327 1620 c-291 -102 -393 -443 -205 -682 l30 -38 -30 -37 c-64 -82
-94 -168 -94 -272 -1 -141 66 -269 182 -349 74 -52 131 -73 215 -79 376 -29
609 393 381 690 l-36 48 29 37 c189 238 88 582 -200 681 -77 26 -198 26 -272
1z m238 -42 c172 -43 300 -227 281 -402 -20 -192 -178 -340 -371 -351 -65 -3
-103 -14 -140 -38 -145 -96 -136 -320 16 -397 158 -81 340 29 340 204 0 66
-39 148 -83 174 -32 19 -35 27 -12 36 32 12 53 5 80 -26 74 -88 89 -209 40
-308 -51 -102 -130 -152 -246 -157 -62 -2 -85 2 -125 21 -225 106 -220 426 8
521 17 7 57 16 87 20 226 27 351 148 352 340 0 128 -69 234 -192 293 -46 23
-69 27 -140 27 -71 0 -94 -4 -140 -26 -67 -33 -116 -80 -155 -151 -27 -48 -30
-61 -30 -148 0 -105 18 -156 73 -215 l29 -31 -23 -17 c-22 -16 -23 -16 -49 14
-142 169 -108 436 70 559 105 72 206 90 330 58z m30 -119 c149 -75 195 -279
95 -417 -16 -23 -40 -48 -54 -57 -37 -24 -125 -53 -184 -59 -30 -3 -59 -9 -65
-13 -6 -4 -21 -8 -33 -9 -38 -4 -122 -64 -157 -112 -125 -170 -67 -407 121
-499 49 -24 69 -28 142 -28 70 0 95 5 140 26 194 90 253 335 123 505 -32 43
-33 47 -16 60 10 7 20 13 23 14 16 0 83 -112 100 -167 41 -132 12 -261 -81
-367 -171 -194 -490 -160 -622 64 -64 109 -68 249 -12 361 65 128 184 204 335
215 144 11 241 104 242 233 1 205 -247 307 -392 161 -96 -95 -95 -228 3 -327
28 -29 36 -43 25 -43 -9 0 -23 -2 -30 -5 -16 -6 -45 17 -75 60 -77 112 -54
273 51 368 82 74 216 89 321 36z m-51 -89 c91 -44 125 -151 78 -245 -95 -192
-397 -72 -336 134 32 110 154 162 258 111z m4 -619 c161 -82 109 -324 -72
-339 -214 -18 -274 292 -68 354 48 15 91 10 140 -15z"/>
<path d="M1331 1119 c-181 -23 -330 -159 -370 -339 -14 -65 -6 -177 18 -240
41 -109 139 -207 251 -252 44 -18 75 -23 160 -23 98 0 110 2 173 32 159 75
257 227 257 399 0 256 -230 455 -489 423z m191 -69 c316 -118 336 -556 32
-704 -196 -96 -444 0 -527 206 -21 53 -25 77 -24 148 2 72 7 95 33 150 90 187
296 272 486 200z"/>
<path d="M1344 1019 c-244 -31 -370 -305 -234 -510 116 -177 377 -198 521 -42
63 68 83 122 84 223 0 73 -4 93 -27 141 -65 131 -202 206 -344 188z m136 -60
c184 -60 250 -300 124 -448 -20 -22 -57 -53 -82 -69 -41 -24 -57 -27 -132 -27
-98 0 -160 24 -211 83 -56 64 -74 110 -73 192 1 87 18 132 71 191 76 84 191
114 303 78z"/>
<path d="M1284 896 c-119 -55 -163 -197 -98 -317 44 -80 115 -119 212 -115 79
3 144 42 187 110 26 42 30 59 30 115 -2 178 -169 282 -331 207z m178 -37 c94
-48 134 -159 89 -247 -48 -94 -152 -128 -249 -81 -62 31 -95 84 -96 159 -1 49
4 65 29 101 52 74 155 105 227 68z"/>
</g>
</svg>
